<svg width="114" height="156" viewBox="0 0 114 156" fill="none" xmlns="http://www.w3.org/2000/svg">
<path d="M39.8999 103.3C37.7999 103.2 36.1999 101.5 36.1999 99.5V20.6C36.0999 18.6 37.5999 16.8 39.5999 16.7C41.5999 16.6 43.3999 18.1 43.4999 20.1C43.4999 20.3 43.4999 20.5 43.4999 20.6V99.5C43.5999 101.5 41.9999 103.2 39.8999 103.3ZM39.8999 123.8C37.7999 123.7 36.1999 122 36.1999 120V41C36.0999 39 37.5999 37.2 39.5999 37.1C41.5999 37 43.3999 38.5 43.4999 40.5C43.4999 40.7 43.4999 40.9 43.4999 41V119.9C43.5999 122 41.9999 123.7 39.8999 123.8Z" fill="#82C671"/>
<path d="M75.6 103.3C73.5 103.2 71.9 101.5 71.9 99.5V20.6C71.8 18.6 73.3 16.8 75.3 16.7C77.3 16.6 79.1 18.1 79.2 20.1C79.2 20.3 79.2 20.5 79.2 20.6V99.5C79.3 101.5 77.6 103.2 75.6 103.3ZM75.6 123.8C73.5 123.7 71.9 122 71.9 120V41C71.8 39 73.3 37.2 75.3 37.1C77.3 37 79.1 38.5 79.2 40.5C79.2 40.7 79.2 40.9 79.2 41V119.9C79.3 122 77.6 123.7 75.6 123.8Z" fill="#C7B558"/>
<path d="M57.7 87.1C55.6 87 54 85.3 54 83.3V4.40002C53.9 2.40002 55.4 0.600022 57.4 0.500022C59.4 0.400022 61.2 1.90002 61.3 3.90002C61.3 4.10002 61.3 4.30002 61.3 4.40002V83.3C61.4 85.3 59.8 87 57.7 87.1ZM57.7 107.5C55.6 107.4 54 105.7 54 103.7V24.8C53.9 22.8 55.4 21 57.4 20.9C59.4 20.8 61.2 22.3 61.3 24.3C61.3 24.5 61.3 24.7 61.3 24.8V103.7C61.4 105.7 59.8 107.4 57.7 107.5ZM57.7 103.3C55.6 103.2 54 101.5 54 99.5V20.6C53.9 18.6 55.4 16.8 57.4 16.7C59.4 16.6 61.2 18.1 61.3 20.1C61.3 20.3 61.3 20.5 61.3 20.6V99.5C61.4 101.5 59.8 103.2 57.7 103.3ZM57.7 123.8C55.6 123.7 54 122 54 120V41C53.9 39 55.4 37.2 57.4 37.1C59.4 37 61.2 38.5 61.3 40.5C61.3 40.7 61.3 40.9 61.3 41V119.9C61.4 122 59.8 123.7 57.7 123.8Z" fill="#AAD047"/>
<path d="M22.0999 65.5C24.0999 65.5 25.7999 67.1 25.7999 69.2V120.1C25.6999 122.1 23.8999 123.7 21.8999 123.5C20.0999 123.4 18.5999 121.9 18.4999 120.1V69.2C18.3999 67.2 20.0999 65.6 22.0999 65.5Z" fill="#54BEA6"/>
<path d="M59.3 140.5L70 146.5C70.7 146.7 71 147.4 70.8 148.1C70.7 148.5 70.4 148.8 70 148.9L58.9 155.2C57.6 155.9 56 155.9 54.6 155.2L44 149.2C43.3 149 43 148.3 43.2 147.6C43.3 147.2 43.6 146.9 44 146.8L55.1 140.5C56.4 139.8 57.9 139.8 59.3 140.5Z" fill="#A8D049"/>
<path d="M92.9 65.5C94.9 65.5 96.6 67.1 96.6 69.1V120C96.5 122 94.7 123.6 92.7 123.4C90.9 123.3 89.4 121.8 89.3 120V69.1C89.2 67.2 90.9 65.6 92.9 65.5Z" fill="#DE7887"/>
<path d="M110.2 123.8C108.2 123.8 106.5 122.1 106.5 120.1V107H113.8V120.1C113.8 122.2 112.2 123.8 110.2 123.8ZM106.5 113.3V100.2C106.5 98.2 108.1 96.5 110.2 96.5C112.3 96.5 113.9 98.1 113.9 100.2V113.3H106.5Z" fill="#E6569F"/>
<path d="M4.29994 123.8C2.29994 123.8 0.699935 122.1 0.699935 120.1V107H7.99994V120.1C7.99994 122.2 6.29994 123.8 4.29994 123.8ZM0.599936 113.3V100.2C0.499936 98.2 1.99994 96.4 3.99994 96.3C5.99994 96.2 7.79994 97.7 7.89994 99.7C7.89994 99.9 7.89994 100.1 7.89994 100.2V113.3H0.599936Z" fill="#29B0C6"/>
</svg>
